<svg width="26" height="26" viewBox="0 0 26 26" fill="none" xmlns="http://www.w3.org/2000/svg">
<g clip-path="url(#clip0_1_2)">
<path d="M26 13C26 5.8203 20.1797 0 13 0C5.8203 0 0 5.8203 0 13C0 20.1797 5.8203 26 13 26C20.1797 26 26 20.1797 26 13Z" fill="#0F4157"/>
<path fill-rule="evenodd" clip-rule="evenodd" d="M14.4301 14.9678C15.7919 14.4057 16.7503 13.0648 16.7503 11.5C16.7503 9.42893 15.0714 7.75 13.0003 7.75C10.9293 7.75 9.25035 9.42893 9.25035 11.5C9.25035 13.0647 10.2087 14.4056 11.5705 14.9677C10.1758 15.1999 8.89287 15.7659 7.80859 16.5806L9.19015 18.4194C10.2514 17.6221 11.569 17.15 13.0001 17.15C14.4312 17.15 15.7488 17.6221 16.8101 18.4194L18.1916 16.5806C17.1074 15.766 15.8246 15.2 14.4301 14.9678Z" fill="white"/>
</g>
<defs>
<clipPath id="clip0_1_2">
<rect width="26" height="26" fill="white"/>
</clipPath>
</defs>
</svg>
